<svg xmlns="http://www.w3.org/2000/svg" viewBox="0 0 32 32" id="scale">
  <path fill="#e4e4e4" d="M29 4.61a.84.84 0 0 0-.05-.17l-.06-.2a1.28 1.28 0 0 0-.11-.2.55.55 0 0 0-.08-.15 1.8 1.8 0 0 0-.55-.55.55.55 0 0 0-.15-.08l-.2-.11-.2-.06h-.17A1.72 1.72 0 0 0 27 3h-8a2 2 0 0 0 0 4h3.17L7 22.17V19a2 2 0 0 0-4 0v8a1.72 1.72 0 0 0 0 .39.84.84 0 0 0 0 .17l.06.2a1.28 1.28 0 0 0 .11.2.55.55 0 0 0 .08.15 1.8 1.8 0 0 0 .55.55.55.55 0 0 0 .15.08l.2.11.2.06.17.05A1.72 1.72 0 0 0 5 29h8a2 2 0 0 0 0-4H9.83L25 9.83V13a2 2 0 0 0 4 0V5a1.72 1.72 0 0 0 0-.39Z"></path>
</svg>
